<svg version="1.2" xmlns="http://www.w3.org/2000/svg" xmlns:xlink="http://www.w3.org/1999/xlink" overflow="visible" preserveAspectRatio="none" viewBox="0 0 79 70.00001" width="79" height="70.00001"><g transform="translate(0, 0)"><g transform="translate(1.7763568394002505e-15, 0) rotate(0)"><path d="M27.65,0l-7.2285,7.77778h-12.5215c-4.345,0 -7.9,3.5 -7.9,7.77778v46.66667c0,4.27778 3.555,7.77778 7.9,7.77778h63.2c4.345,0 7.9,-3.5 7.9,-7.77778v-46.66667c0,-4.27778 -3.555,-7.77778 -7.9,-7.77778h-12.5215l-7.2285,-7.77778zM39.5,58.33333c-10.902,0 -19.75,-8.71111 -19.75,-19.44444c0,-10.73333 8.848,-19.44444 19.75,-19.44444c10.902,0 19.75,8.71111 19.75,19.44444c0,10.73333 -8.848,19.44444 -19.75,19.44444z" style="stroke-width: 0; stroke-linecap: butt; stroke-linejoin: miter; fill: rgb(38, 38, 38);" vector-effect="non-scaling-stroke"/></g><defs><path id="path-16388201642268" d="M27.65,0l-7.2285,7.77778h-12.5215c-4.345,0 -7.9,3.5 -7.9,7.77778v46.66667c0,4.27778 3.555,7.77778 7.9,7.77778h63.2c4.345,0 7.9,-3.5 7.9,-7.77778v-46.66667c0,-4.27778 -3.555,-7.77778 -7.9,-7.77778h-12.5215l-7.2285,-7.77778zM39.5,58.33333c-10.902,0 -19.75,-8.71111 -19.75,-19.44444c0,-10.73333 8.848,-19.44444 19.75,-19.44444c10.902,0 19.75,8.71111 19.75,19.44444c0,10.73333 -8.848,19.44444 -19.75,19.44444z" vector-effect="non-scaling-stroke"/></defs></g></svg>