<svg version="1.2" xmlns="http://www.w3.org/2000/svg" xmlns:xlink="http://www.w3.org/1999/xlink" overflow="visible" preserveAspectRatio="none" viewBox="0 0 30.99999 31.000004869585375" width="30.99999" height="31.000004869585375"><g transform="translate(0, 0)"><g transform="translate(-0.000010000000004506404, 0.000004869585375100183) rotate(0)"><path d="M8.6025,14.13217v-4.21696c0.02583,-3.09946 3.1,-5.60855 6.8975,-5.60855c3.7975,0 6.8975,2.53017 6.8975,5.62964v4.21696h-13.795zM30.97417,16.24065c0,-1.15966 -1.1625,-2.10848 -2.58333,-2.10848h-0.8525v-4.21696c0.0775,-2.6356 -1.21417,-5.18686 -3.53917,-7.02124c-4.65,-3.83743 -12.21917,-3.85852 -16.92083,-0.06325c-0.02583,0.02108 -0.05167,0.04217 -0.0775,0.06325c-2.325,1.83438 -3.61667,4.38564 -3.53917,7.02124v4.21696h-0.87833c-1.42083,0 -2.58333,0.94882 -2.58333,2.10848v12.65087c0,1.15966 1.1625,2.10848 2.58333,2.10848h25.83333c1.42083,0 2.58333,-0.94882 2.58333,-2.10848v-12.65087v0z" style="stroke-width: 0; stroke-linecap: butt; stroke-linejoin: miter; fill: rgb(38, 38, 38);" vector-effect="non-scaling-stroke"/></g><defs><path id="path-163879128454611" d="M8.6025,14.13217v-4.21696c0.02583,-3.09946 3.1,-5.60855 6.8975,-5.60855c3.7975,0 6.8975,2.53017 6.8975,5.62964v4.21696h-13.795zM30.97417,16.24065c0,-1.15966 -1.1625,-2.10848 -2.58333,-2.10848h-0.8525v-4.21696c0.0775,-2.6356 -1.21417,-5.18686 -3.53917,-7.02124c-4.65,-3.83743 -12.21917,-3.85852 -16.92083,-0.06325c-0.02583,0.02108 -0.05167,0.04217 -0.0775,0.06325c-2.325,1.83438 -3.61667,4.38564 -3.53917,7.02124v4.21696h-0.87833c-1.42083,0 -2.58333,0.94882 -2.58333,2.10848v12.65087c0,1.15966 1.1625,2.10848 2.58333,2.10848h25.83333c1.42083,0 2.58333,-0.94882 2.58333,-2.10848v-12.65087v0z" vector-effect="non-scaling-stroke"/></defs></g></svg>