<svg version="1.2" xmlns="http://www.w3.org/2000/svg" xmlns:xlink="http://www.w3.org/1999/xlink" overflow="visible" preserveAspectRatio="none" viewBox="0 0 16.000005 13" width="16.000005" height="13"><g transform="translate(0, 0)"><g transform="translate(-0.000007500000000271179, 0) rotate(0)"><path d="M14.75675,1.17069c-0.86152,-0.81904 -1.90515,-1.17069 -3.00948,-1.17069c-1.10433,0 -2.211,0.40952 -3.00948,1.17069c-0.24515,0.23369 -0.4903,0.52748 -0.67474,0.87913c-0.18444,-0.29379 -0.42959,-0.58534 -0.67474,-0.87913c-0.86386,-0.81904 -1.90749,-1.17069 -3.01182,-1.17069c-1.10433,0 -2.27404,0.35165 -3.13323,1.17069c-1.65767,1.58021 -1.65767,4.15751 0,5.79781l6.75675,6.0315l6.75675,-6.08937c1.65767,-1.58243 1.65767,-4.15751 0,-5.73994zM14.32716,6.49889l-6.32716,5.73771l-6.32716,-5.73771c-0.67474,-0.64321 -1.04363,-1.52234 -1.04363,-2.45934c0,-0.937 0.36889,-1.8139 1.04363,-2.45934c0.73778,-0.7033 1.65767,-1.05496 2.6406,-1.05496c0.98293,0 1.90515,0.35165 2.57989,0.99486c0.24515,0.23369 0.42959,0.46739 0.55333,0.7033l0.55333,0.87913l0.55333,-0.87913c0.18444,-0.29379 0.36889,-0.52748 0.55333,-0.7033c0.67474,-0.64321 1.59696,-0.99486 2.57989,-0.99486c0.98293,0 1.90282,0.35388 2.57756,0.99709c0.67474,0.64321 1.04363,1.52234 1.04363,2.45934c0,0.937 -0.30585,1.87399 -0.98059,2.51721z" style="stroke-width: 0; stroke-linecap: butt; stroke-linejoin: miter; fill: rgb(38, 38, 38);" vector-effect="non-scaling-stroke"/></g><defs><path id="path-163847792373910934" d="M14.75675,1.17069c-0.86152,-0.81904 -1.90515,-1.17069 -3.00948,-1.17069c-1.10433,0 -2.211,0.40952 -3.00948,1.17069c-0.24515,0.23369 -0.4903,0.52748 -0.67474,0.87913c-0.18444,-0.29379 -0.42959,-0.58534 -0.67474,-0.87913c-0.86386,-0.81904 -1.90749,-1.17069 -3.01182,-1.17069c-1.10433,0 -2.27404,0.35165 -3.13323,1.17069c-1.65767,1.58021 -1.65767,4.15751 0,5.79781l6.75675,6.0315l6.75675,-6.08937c1.65767,-1.58243 1.65767,-4.15751 0,-5.73994zM14.32716,6.49889l-6.32716,5.73771l-6.32716,-5.73771c-0.67474,-0.64321 -1.04363,-1.52234 -1.04363,-2.45934c0,-0.937 0.36889,-1.8139 1.04363,-2.45934c0.73778,-0.7033 1.65767,-1.05496 2.6406,-1.05496c0.98293,0 1.90515,0.35165 2.57989,0.99486c0.24515,0.23369 0.42959,0.46739 0.55333,0.7033l0.55333,0.87913l0.55333,-0.87913c0.18444,-0.29379 0.36889,-0.52748 0.55333,-0.7033c0.67474,-0.64321 1.59696,-0.99486 2.57989,-0.99486c0.98293,0 1.90282,0.35388 2.57756,0.99709c0.67474,0.64321 1.04363,1.52234 1.04363,2.45934c0,0.937 -0.30585,1.87399 -0.98059,2.51721z" vector-effect="non-scaling-stroke"/></defs></g></svg>