<svg version="1.2" xmlns="http://www.w3.org/2000/svg" xmlns:xlink="http://www.w3.org/1999/xlink" overflow="visible"
     preserveAspectRatio="none" viewBox="0 0 34 34" width="34" height="34">

    <g transform="translate(2, 2)">
        <defs>
            <path id="path-163843492618891"
                  d="M0 10.000000000000002 C0 4.477152502000001 4.477152502000001 0 10.000000000000002 0 C10.000000000000002 0 20.000000000000007 0 20.000000000000007 0 C25.522847498000008 0 30.00000000000001 4.477152502000001 30.00000000000001 10.000000000000002 C30.00000000000001 10.000000000000002 30.00000000000001 20 30.00000000000001 20 C30.00000000000001 25.522847498 25.522847498000008 30 20.000000000000007 30 C20.000000000000007 30 10.000000000000002 30 10.000000000000002 30 C4.477152502000001 30 0 25.522847498 0 20 C0 20 0 10.000000000000002 0 10.000000000000002 Z"
                  vector-effect="non-scaling-stroke"/>
        </defs>

        <g transform="translate(0, 0)">
            <path d="M0 10.000000000000002 C0 4.477152502000001 4.477152502000001 0 10.000000000000002 0 C10.000000000000002 0 20.000000000000007 0 20.000000000000007 0 C25.522847498000008 0 30.00000000000001 4.477152502000001 30.00000000000001 10.000000000000002 C30.00000000000001 10.000000000000002 30.00000000000001 20 30.00000000000001 20 C30.00000000000001 25.522847498 25.522847498000008 30 20.000000000000007 30 C20.000000000000007 30 10.000000000000002 30 10.000000000000002 30 C4.477152502000001 30 0 25.522847498 0 20 C0 20 0 10.000000000000002 0 10.000000000000002 Z"
                  style="stroke: rgb(240, 240, 240); stroke-width: 2; stroke-linecap: butt; stroke-linejoin: miter; fill: transparent;"
                  vector-effect="non-scaling-stroke"/>
        </g>

    </g>
</svg>