<svg version="1.2" xmlns="http://www.w3.org/2000/svg" xmlns:xlink="http://www.w3.org/1999/xlink" overflow="visible" preserveAspectRatio="none" viewBox="0 0 15 15" width="15" height="15"><g transform="translate(0, 0)"><g transform="translate(0, 0) rotate(0)"><path d="M9.46729,0c-3.07477,0 -5.53271,2.45833 -5.53271,5.53357c0,1.41377 0.55374,2.70603 1.41355,3.68983l-5.34813,5.34663l0.42991,0.42997l5.34813,-5.34896c0.98364,0.85995 2.27336,1.41377 3.68925,1.41377c3.07243,0 5.53271,-2.45833 5.53271,-5.53357c0,-3.07525 -2.46028,-5.53124 -5.53271,-5.53124zM9.46729,10.45256c-2.70561,0 -4.91822,-2.21296 -4.91822,-4.91899c0,-2.70603 2.21262,-4.91899 4.91822,-4.91899c2.70561,0 4.91589,2.21296 4.91589,4.91899c0,2.70603 -2.21262,4.91899 -4.91589,4.91899z" style="stroke-width: 0; stroke-linecap: butt; stroke-linejoin: miter; fill: rgb(38, 38, 38);" vector-effect="non-scaling-stroke"/></g><defs><path id="path-16388566112079869" d="M9.46729,0c-3.07477,0 -5.53271,2.45833 -5.53271,5.53357c0,1.41377 0.55374,2.70603 1.41355,3.68983l-5.34813,5.34663l0.42991,0.42997l5.34813,-5.34896c0.98364,0.85995 2.27336,1.41377 3.68925,1.41377c3.07243,0 5.53271,-2.45833 5.53271,-5.53357c0,-3.07525 -2.46028,-5.53124 -5.53271,-5.53124zM9.46729,10.45256c-2.70561,0 -4.91822,-2.21296 -4.91822,-4.91899c0,-2.70603 2.21262,-4.91899 4.91822,-4.91899c2.70561,0 4.91589,2.21296 4.91589,4.91899c0,2.70603 -2.21262,4.91899 -4.91589,4.91899z" vector-effect="non-scaling-stroke"/></defs></g></svg>