<svg version="1.2" xmlns="http://www.w3.org/2000/svg" xmlns:xlink="http://www.w3.org/1999/xlink" overflow="visible" preserveAspectRatio="none" viewBox="0 0 15.000008598828797 14.999996147381543" width="15.000008598828797" height="14.999996147381543"><g transform="translate(0, 0)"><g transform="translate(0.000003633934041516289, 0.000002564757166072934) rotate(0)"><path d="M2.05675,9.88405l3.059,3.05912l7.81743,-7.81774l-3.059,-3.05912zM0.01742,14.64267c-0.06798,0.27328 0.06662,0.40788 0.33989,0.3399l4.07866,-1.35961l-3.059,-3.05912zM14.29274,0.7067c-1.35751,-1.35893 -2.71911,-0.3399 -2.71911,-0.3399c-0.22297,0.17131 -1.01967,1.01971 -1.01967,1.01971l3.059,3.05912c0,0 0.84768,-0.79809 1.01967,-1.01971c0,0 1.02035,-1.35757 -0.33989,-2.71921z" style="stroke-width: 0; stroke-linecap: butt; stroke-linejoin: miter; fill: rgb(240, 240, 240);" vector-effect="non-scaling-stroke"/></g><defs><path id="path-163879410004331" d="M2.05675,9.88405l3.059,3.05912l7.81743,-7.81774l-3.059,-3.05912zM0.01742,14.64267c-0.06798,0.27328 0.06662,0.40788 0.33989,0.3399l4.07866,-1.35961l-3.059,-3.05912zM14.29274,0.7067c-1.35751,-1.35893 -2.71911,-0.3399 -2.71911,-0.3399c-0.22297,0.17131 -1.01967,1.01971 -1.01967,1.01971l3.059,3.05912c0,0 0.84768,-0.79809 1.01967,-1.01971c0,0 1.02035,-1.35757 -0.33989,-2.71921z" vector-effect="non-scaling-stroke"/></defs></g></svg>