<svg version="1.2" xmlns="http://www.w3.org/2000/svg" xmlns:xlink="http://www.w3.org/1999/xlink" overflow="visible" preserveAspectRatio="none" viewBox="0 0 39.99998 40.0000089938113" width="39.99998" height="40.0000089938113"><g transform="translate(0, 0)"><g transform="translate(-0.00001999999999746649, 0.000008993811299984333) rotate(0)"><path d="M11.1,18.23506v-5.44124c0.03333,-3.99931 4,-7.23684 8.9,-7.23684c4.9,0 8.9,3.26474 8.9,7.26405v5.44124h-17.79999zM39.96665,20.95567c0,-1.49634 -1.5,-2.72062 -3.33333,-2.72062h-1.1v-5.44124c0.1,-3.40077 -1.56667,-6.69272 -4.56666,-9.05966c-6,-4.95152 -15.76666,-4.97873 -21.83332,-0.08162c-0.03333,0.02721 -0.06667,0.05441 -0.1,0.08162c-3,2.36694 -4.66666,5.65889 -4.56666,9.05966v5.44124h-1.13333c-1.83333,0 -3.33333,1.22428 -3.33333,2.72062v16.32371c0,1.49634 1.5,2.72062 3.33333,2.72062h33.33332c1.83333,0 3.33333,-1.22428 3.33333,-2.72062v-16.32371v0z" style="stroke-width: 0; stroke-linecap: butt; stroke-linejoin: miter; fill: rgb(38, 38, 38);" vector-effect="non-scaling-stroke"/></g><defs><path id="path-16388581947638" d="M11.1,18.23506v-5.44124c0.03333,-3.99931 4,-7.23684 8.9,-7.23684c4.9,0 8.9,3.26474 8.9,7.26405v5.44124h-17.79999zM39.96665,20.95567c0,-1.49634 -1.5,-2.72062 -3.33333,-2.72062h-1.1v-5.44124c0.1,-3.40077 -1.56667,-6.69272 -4.56666,-9.05966c-6,-4.95152 -15.76666,-4.97873 -21.83332,-0.08162c-0.03333,0.02721 -0.06667,0.05441 -0.1,0.08162c-3,2.36694 -4.66666,5.65889 -4.56666,9.05966v5.44124h-1.13333c-1.83333,0 -3.33333,1.22428 -3.33333,2.72062v16.32371c0,1.49634 1.5,2.72062 3.33333,2.72062h33.33332c1.83333,0 3.33333,-1.22428 3.33333,-2.72062v-16.32371v0z" vector-effect="non-scaling-stroke"/></defs></g></svg>